<?xml version="1.0" encoding="UTF-8" standalone="no"?>
<svg
   xmlns:dc="http://purl.org/dc/elements/1.1/"
   xmlns:cc="http://creativecommons.org/ns#"
   xmlns:rdf="http://www.w3.org/1999/02/22-rdf-syntax-ns#"
   xmlns:svg="http://www.w3.org/2000/svg"
   xmlns="http://www.w3.org/2000/svg"
   xmlns:sodipodi="http://sodipodi.sourceforge.net/DTD/sodipodi-0.dtd"
   xmlns:inkscape="http://www.inkscape.org/namespaces/inkscape"
   inkscape:version="1.0 (4035a4fb49, 2020-05-01)"
   sodipodi:docname="random.svg"
   id="svg56"
   version="1.1"
   viewBox="0 0 80.920803 38.802964"
   height="503.26532"
   width="1049.5238">
  <metadata
     id="metadata62">
    <rdf:RDF>
      <cc:Work
         rdf:about="">
        <dc:format>image/svg+xml</dc:format>
        <dc:type
           rdf:resource="http://purl.org/dc/dcmitype/StillImage" />
        <dc:title></dc:title>
      </cc:Work>
    </rdf:RDF>
  </metadata>
  <defs
     id="defs60" />
  <sodipodi:namedview
     lock-margins="true"
     fit-margin-bottom="20"
     fit-margin-right="20"
     fit-margin-left="20"
     fit-margin-top="20"
     inkscape:current-layer="g54"
     inkscape:window-maximized="1"
     inkscape:window-y="222"
     inkscape:window-x="-8"
     inkscape:cy="716.87001"
     inkscape:cx="803.59904"
     inkscape:zoom="0.20788939"
     showgrid="false"
     id="namedview58"
     inkscape:window-height="987"
     inkscape:window-width="1680"
     inkscape:pageshadow="2"
     inkscape:pageopacity="0"
     guidetolerance="10"
     gridtolerance="10"
     objecttolerance="10"
     borderopacity="1"
     bordercolor="#666666"
     pagecolor="#ffffff" />
  <g
     transform="matrix(0.44288817,0,0,0.92796438,-2.224273,-70.033109)"
     id="g54"
     clip-rule="evenodd"
     fill-rule="evenodd">
    <path
       id="random-R"
       d="M 34.128,104.625 27,94.305 c 7.461,-0.466 6.928,-7.528 6.928,-7.528 -0.514,-7.655 -8.46,-7.342 -8.46,-7.342 H 8.504 v 25.19 h 8.882 v -9.003 l 6.084,9.003 z" />
    <path
       id="random-AN"
       d="M 82.935,79.435 V 91.026 L 77.605,79.435 H 66.237 v 25.19 h 8.882 V 90.479 l 7.238,14.146 h 9.459 v -25.19 z m -28.956,25.19 h 9.726 L 56.777,79.435 H 41.989 l -6.994,25.19 h 9.863 l 0.898,-4.059 h 7.285 z" />
    <path
       id="random-D"
       d="m 111.135,79.435 h -14.7 v 25.19 h 14.1 c 0,0 11.299,0.336 10.992,-12.319 0,0 0.555,-13.188 -10.392,-12.871 z" />
    <path
       style="fill:#000080"
       id="atom-Electrons"
       d="m 147.559,91.956 c 3.057,-2.566 4.58,-5.111 3.777,-6.853 -0.295,-0.639 -0.875,-1.121 -1.725,-1.434 a 6.162,6.162 0 0 0 -1.012,-0.265 c 0.004,-0.031 0.01,-0.06 0.01,-0.092 a 1.036,1.036 0 0 0 -2.068,-0.052 c -0.32,0.005 -0.648,0.02 -0.99,0.046 0.166,-1.696 0.076,-3.145 -0.303,-4.206 -0.303,-0.853 -0.777,-1.438 -1.412,-1.74 -0.635,-0.302 -1.389,-0.301 -2.242,0.002 -1.441,0.513 -3.104,1.886 -4.76,3.845 -1.674,-1.967 -3.35,-3.344 -4.801,-3.853 -0.854,-0.299 -1.607,-0.297 -2.24,0.007 -0.635,0.304 -1.107,0.892 -1.406,1.746 -0.365,1.036 -0.455,2.436 -0.299,4.075 -0.494,-0.048 -0.963,-0.07 -1.41,-0.072 a 1.034,1.034 0 0 0 -1.963,0.171 5.926,5.926 0 0 0 -0.75,0.202 c -0.854,0.301 -1.439,0.775 -1.742,1.409 -0.305,0.634 -0.305,1.388 -0.004,2.241 0.498,1.409 1.814,3.03 3.695,4.653 -2.945,2.518 -4.4,5 -3.611,6.711 0.691,1.498 2.953,2.072 6.076,1.783 -0.023,0.24 -0.039,0.475 -0.053,0.705 -0.41,0.139 -0.709,0.521 -0.709,0.979 0,0.471 0.316,0.863 0.746,0.99 0.178,1.646 0.75,2.812 1.744,3.283 0.635,0.303 1.389,0.301 2.24,-0.002 1.373,-0.488 2.943,-1.754 4.52,-3.562 2.564,2.908 5.072,4.326 6.77,3.51 0.963,-0.461 1.525,-1.576 1.713,-3.146 a 1.032,1.032 0 1 0 0.053,-1.994 18,18 0 0 0 -0.045,-0.631 c 1.592,0.139 2.955,0.043 3.967,-0.314 0.854,-0.301 1.439,-0.775 1.742,-1.41 0.303,-0.633 0.305,-1.387 0.004,-2.24 -0.483,-1.364 -1.729,-2.923 -3.512,-4.492 z" />
    <path
       id="atom-Nuecleus-outerBG"
       fill="#ffffff"
       d="m 133.305,96.605 a 46.81,46.81 0 0 0 2.672,1.238 c -0.537,0.199 -1.07,0.385 -1.594,0.555 a 38.997,38.997 0 0 1 -1.078,-1.793 z m 1.068,-0.068 a 43.484,43.484 0 0 1 -1.527,-0.767 43.105,43.105 0 0 1 -1.748,-3.656 43.18,43.18 0 0 1 2.025,-4.368 42.883,42.883 0 0 1 3.658,-1.655 43.948,43.948 0 0 1 3.887,1.839 43.953,43.953 0 0 1 1.934,4.161 44.332,44.332 0 0 1 -1.668,3.547 41.859,41.859 0 0 1 -4.234,1.93 42.937,42.937 0 0 1 -2.327,-1.031 z" />
    <path
       style="fill:#000080"
       id="atom-Nuecleus"
       d="m 136.781,89.324 a 2.449,2.449 0 1 0 2.449,2.449 2.448,2.448 0 0 0 -2.449,-2.449 z" />
    <path
       style="fill:#ff0000"
       id="atom-Orbitals-innerBG"
       fill="#ffffff"
       d="m 145.49,83.837 c 0.404,-0.034 0.793,-0.053 1.162,-0.056 0.172,0.336 0.518,0.568 0.92,0.568 0.35,0 0.656,-0.174 0.846,-0.438 0.367,0.063 0.707,0.147 1.01,0.258 0.711,0.263 1.191,0.651 1.424,1.156 0.691,1.5 -0.836,3.86 -3.721,6.263 a 31.818,31.818 0 0 0 -2.955,-2.192 c 0.658,-1.988 1.103,-3.881 1.314,-5.559 z m -12.756,3.507 a 42.743,42.743 0 0 0 -2.832,1.584 c -0.605,-1.847 -1.02,-3.598 -1.221,-5.15 1.615,0.21 3.443,0.648 5.369,1.291 -0.45,0.724 -0.89,1.486 -1.316,2.275 z m 1.832,-2.1 c 0.496,0.173 1,0.361 1.506,0.56 a 44.945,44.945 0 0 0 -2.502,1.124 c 0.325,-0.581 0.657,-1.142 0.996,-1.684 z m -3.759,6.162 a 37.492,37.492 0 0 1 -0.727,-1.948 40.073,40.073 0 0 1 2.215,-1.279 44.727,44.727 0 0 0 -1.488,3.227 z m 0.015,1.418 c 0.365,0.834 0.768,1.68 1.182,2.49 a 42.482,42.482 0 0 1 -1.709,-1.001 c 0.162,-0.491 0.34,-0.988 0.527,-1.489 z m -0.302,-0.711 a 42.835,42.835 0 0 0 -0.699,1.901 32.782,32.782 0 0 1 -3.066,-2.207 32.12,32.12 0 0 1 2.865,-2.057 c 0.267,0.777 0.569,1.566 0.9,2.363 z m -0.391,2.719 c 0.74,0.457 1.516,0.902 2.32,1.331 0.453,0.842 0.918,1.646 1.395,2.404 -1.73,0.531 -3.369,0.898 -4.832,1.088 0.195,-1.46 0.572,-3.094 1.117,-4.823 z m 11.81,-5.568 a 50.884,50.884 0 0 0 -0.434,-0.875 41.33,41.33 0 0 1 2.039,1.226 c -0.201,0.582 -0.42,1.171 -0.654,1.766 a 45.03,45.03 0 0 0 -0.951,-2.117 z m 1.457,4.979 c -0.527,0.323 -1.072,0.643 -1.637,0.954 0.395,-0.785 0.773,-1.596 1.119,-2.396 0.184,0.486 0.358,0.966 0.518,1.442 z m -2.334,-6.704 a 41.998,41.998 0 0 0 -1.428,-2.465 c 1.912,-0.601 3.723,-1.002 5.32,-1.183 -0.207,1.572 -0.625,3.342 -1.236,5.208 a 41.01,41.01 0 0 0 -2.656,-1.56 z m -0.851,-0.449 a 44.832,44.832 0 0 0 -2.715,-1.275 42.171,42.171 0 0 1 1.619,-0.574 c 0.373,0.592 0.739,1.211 1.096,1.849 z m -0.965,9.972 c 0.422,-0.195 0.836,-0.395 1.242,-0.597 a 42.003,42.003 0 0 1 -1.217,2.058 41.27,41.27 0 0 1 -1.85,-0.668 42.216,42.216 0 0 0 1.825,-0.793 z m 2.078,-1.023 a 42.775,42.775 0 0 0 2.246,-1.264 c 0.58,1.816 0.975,3.531 1.166,5.045 -1.492,-0.186 -3.172,-0.568 -4.945,-1.129 a 41.796,41.796 0 0 0 1.533,-2.652 z m 1.856,-3.952 c 0.299,-0.732 0.574,-1.458 0.82,-2.174 0.994,0.66 1.906,1.336 2.717,2.012 a 32.16,32.16 0 0 1 -2.848,2.021 c -0.209,-0.61 -0.439,-1.23 -0.689,-1.859 z m -1.409,-14.221 c 1.43,-0.508 2.467,-0.016 2.975,1.414 0.363,1.021 0.443,2.425 0.273,4.078 -1.705,0.182 -3.641,0.609 -5.678,1.254 a 33.56,33.56 0 0 0 -2.168,-2.995 c 1.61,-1.918 3.216,-3.259 4.598,-3.751 z m -4.937,4.165 c 0.67,0.828 1.338,1.75 1.986,2.75 -0.67,0.223 -1.35,0.469 -2.033,0.737 a 40.979,40.979 0 0 0 -1.93,-0.732 32.624,32.624 0 0 1 1.977,-2.755 z m -7.945,-2.746 c 0.502,-1.432 1.537,-1.929 2.969,-1.426 1.393,0.489 3.012,1.833 4.637,3.76 a 32.825,32.825 0 0 0 -2.152,2.99 c -2.051,-0.689 -4.002,-1.153 -5.723,-1.366 -0.163,-1.6 -0.081,-2.961 0.269,-3.958 z m -6.168,7.672 c -0.504,-1.431 -0.008,-2.466 1.422,-2.971 a 5.43,5.43 0 0 1 0.596,-0.165 c 0.133,0.421 0.521,0.729 0.984,0.729 0.531,0 0.963,-0.399 1.025,-0.913 0.441,0.004 0.908,0.028 1.398,0.078 0.203,1.657 0.643,3.53 1.291,5.501 a 31.59,31.59 0 0 0 -3.115,2.23 c -1.842,-1.573 -3.123,-3.138 -3.601,-4.489 z m 0.066,11.318 c -0.68,-1.473 0.777,-3.771 3.557,-6.127 a 33.269,33.269 0 0 0 3.305,2.383 c -0.604,1.871 -1.01,3.627 -1.207,5.188 -2.928,0.297 -5.063,-0.158 -5.655,-1.444 z m 9.383,7.459 c -0.715,0.254 -1.332,0.262 -1.834,0.023 -0.807,-0.383 -1.273,-1.379 -1.428,-2.791 0.449,-0.115 0.783,-0.518 0.783,-1.002 a 1.04,1.04 0 0 0 -0.809,-1.01 c 0.014,-0.238 0.033,-0.482 0.061,-0.734 1.568,-0.191 3.33,-0.584 5.205,-1.176 a 31.87,31.87 0 0 0 2.373,3.229 c -1.525,1.764 -3.037,2.995 -4.351,3.461 z m 2.518,-6.863 c 0.66,-0.219 1.334,-0.461 2.016,-0.729 0.766,0.309 1.525,0.59 2.273,0.84 a 32.056,32.056 0 0 1 -2.092,2.861 31.866,31.866 0 0 1 -2.197,-2.972 z m 8.718,6.832 c -1.459,0.701 -3.779,-0.717 -6.176,-3.455 a 32.21,32.21 0 0 0 2.266,-3.096 c 1.9,0.605 3.705,1.016 5.303,1.203 0.021,0.23 0.039,0.455 0.051,0.676 a 1.035,1.035 0 0 0 -0.777,1 c 0,0.469 0.312,0.859 0.738,0.988 -0.161,1.354 -0.622,2.309 -1.405,2.684 z m 5.74,-6.109 c -0.973,0.344 -2.293,0.432 -3.844,0.287 -0.191,-1.613 -0.611,-3.444 -1.252,-5.401 a 32.113,32.113 0 0 0 3.098,-2.187 c 1.742,1.52 2.957,3.025 3.418,4.331 0.506,1.431 0.01,2.466 -1.42,2.97 z" />
    <path
       id="random-M"
       d="m 171.621,79.435 -3.73,12.005 -3.863,-12.005 h -11.992 v 25.19 h 8.883 V 90.666 c 1.205,3.563 4.574,13.959 4.574,13.959 h 4.664 l 4.795,-13.959 v 13.959 h 8.883 v -25.19 z" />
    <path
       id="letters-INCO"
       d="M 14.153,115.422 H 8.557 v -0.268 c 0.863,-0.053 1.487,-0.096 1.487,-0.756 v -5.158 c 0,-0.703 -0.751,-0.725 -1.487,-0.756 v -0.268 h 5.596 v 0.268 c -0.751,0.021 -1.519,0.031 -1.519,0.756 v 5.158 c 0,0.682 0.64,0.715 1.519,0.756 z m 4.715,-0.268 c 0.959,-0.074 1.407,-0.148 1.407,-0.852 v -5.051 c -0.896,-0.736 -1.151,-0.768 -1.359,-0.768 v -0.268 h 3.373 l 5.548,4.551 h 0.032 v -3.229 c 0,-0.639 -0.192,-0.99 -1.487,-1.055 v -0.268 h 3.438 v 0.268 c -1.151,0.096 -1.247,0.34 -1.247,0.852 v 6.277 h -0.448 l -7.114,-5.775 h -0.032 v 4.262 c 0,0.768 0.336,0.971 1.519,1.055 v 0.268 h -3.629 v -0.267 z m 26.425,-1.086 c -1.167,0.885 -2.414,1.555 -4.46,1.555 -3.725,0 -5.74,-1.746 -5.74,-3.74 0,-2.162 2.303,-3.826 5.66,-3.826 1.439,0 2.67,0.523 3.085,0.523 0.432,0 0.576,-0.225 0.735,-0.49 h 0.432 v 2.494 h -0.399 c -0.56,-0.928 -1.902,-2.174 -3.725,-2.174 -2.334,0 -2.958,1.629 -2.958,3.43 0,0.641 0.096,1.664 0.688,2.346 0.671,0.768 1.935,0.928 2.43,0.928 1.247,0 2.446,-0.32 3.773,-1.312 z m 16.594,-2.228 c 0,2.238 -2.382,3.783 -5.659,3.783 -3.277,0 -5.66,-1.545 -5.66,-3.783 0,-2.322 2.574,-3.783 5.66,-3.783 3.085,0 5.659,1.461 5.659,3.783 z" />
    <path
       id="incorporated-R"
       d="m 78.032,115.422 h -3.277 l -3.31,-3.336 h -0.432 v 2.088 c 0,0.854 0.352,0.885 1.407,0.98 v 0.268 h -5.403 v -0.268 c 1.087,-0.084 1.406,-0.117 1.406,-0.98 v -4.709 c 0,-0.916 -0.496,-0.938 -1.406,-0.98 v -0.268 h 5.147 c 1.119,0 4.508,0.086 4.508,1.877 0,1.311 -1.646,1.641 -2.51,1.822 l 3.214,3.037 c 0.224,0.191 0.463,0.201 0.655,0.201 v 0.268 z" />
    <path
       id="incorporated-P"
       d="m 82.555,115.154 c 0.783,-0.084 0.815,-0.096 0.927,-0.148 0.192,-0.096 0.416,-0.234 0.416,-0.832 v -4.709 c 0,-0.896 -0.495,-0.928 -1.343,-0.98 v -0.268 h 5.148 c 1.279,0 4.188,0.16 4.188,1.961 0,0.373 -0.176,1.131 -1.455,1.609 -1.023,0.385 -1.839,0.395 -3.949,0.404 v 1.982 c 0,0.863 0.304,0.885 1.407,0.98 v 0.268 h -5.34 v -0.267 z" />
    <path
       id="incorporated-O"
       d="m 108.1,111.84 c 0,2.238 -2.381,3.783 -5.658,3.783 -3.277,0 -5.66,-1.545 -5.66,-3.783 0,-2.322 2.574,-3.783 5.66,-3.783 3.083,0 5.658,1.461 5.658,3.783 z" />
    <path
       id="incorporated-R2"
       d="m 124.244,115.422 h -3.277 l -3.309,-3.336 h -0.432 v 2.088 c 0,0.854 0.352,0.885 1.406,0.98 v 0.268 h -5.402 v -0.268 c 1.086,-0.084 1.406,-0.117 1.406,-0.98 v -4.709 c 0,-0.916 -0.496,-0.938 -1.406,-0.98 v -0.268 h 5.146 c 1.119,0 4.508,0.086 4.508,1.877 0,1.311 -1.646,1.641 -2.51,1.822 l 3.215,3.037 c 0.223,0.191 0.463,0.201 0.654,0.201 v 0.268 z" />
    <path
       id="incorportated-A"
       d="m 139.527,115.422 h -5.18 v -0.268 c 0.992,-0.053 1.279,-0.062 1.279,-0.414 0,-0.289 -0.512,-1.078 -0.736,-1.418 h -3.596 c -0.449,0.768 -0.703,1.203 -0.703,1.375 0,0.404 0.766,0.436 1.311,0.457 v 0.268 h -3.246 v -0.268 c 0.863,-0.084 1.088,-0.447 1.566,-1.246 l 3.549,-5.84 h 0.449 l 3.564,5.605 c 0.719,1.141 0.975,1.502 1.742,1.48 v 0.269 z" />
    <path
       id="letters-TED"
       d="m 151.959,115.422 h -5.707 v -0.268 c 1.168,-0.062 1.551,-0.084 1.551,-0.98 v -5.615 c -1.119,0.043 -2.766,0.096 -3.086,1.801 h -0.463 l 0.049,-2.143 h 9.592 l 0.031,2.143 h -0.463 c -0.32,-1.705 -1.967,-1.758 -3.07,-1.801 v 5.615 c 0,0.906 0.385,0.928 1.566,0.98 z m 6.342,-7.205 h 9.225 v 2.143 h -0.398 c -0.369,-1.514 -1.504,-1.779 -3.662,-1.779 -0.879,0 -1.166,0.043 -1.166,0.5 v 2.473 c 1.535,0.012 2.35,-0.266 2.59,-1.588 h 0.416 v 3.602 h -0.416 c -0.193,-1.332 -1.008,-1.65 -2.59,-1.65 v 2.578 c 0,0.469 0.303,0.598 1.342,0.598 1.566,0 3.197,-0.277 4.205,-1.887 h 0.447 l -0.639,2.217 h -9.354 v -0.268 c 0.912,-0.062 1.408,-0.096 1.408,-0.756 v -5.158 c 0,-0.703 -0.672,-0.725 -1.408,-0.756 z m 15.144,6.937 c 1.008,0 1.326,-0.309 1.326,-0.703 v -5.254 c 0,-0.648 -0.703,-0.67 -1.326,-0.713 v -0.268 h 4.875 c 4.477,0 5.932,1.855 5.932,3.496 0,1.961 -1.727,3.623 -5.756,3.709 h -5.051 z" />
    <path
       id="letter-O-hole"
       fill="#ffffff"
       d="m 53.398,111.84 c 0,0.928 0.096,3.432 2.83,3.432 2.733,0 2.829,-2.504 2.829,-3.432 0,-1.555 -0.591,-3.43 -2.829,-3.43 -2.238,0 -2.83,1.875 -2.83,3.43 z" />
    <path
       id="incorporated-R-hole"
       fill="#ffffff"
       d="m 71.013,111.744 c 2.095,-0.01 2.926,-0.244 2.926,-1.629 0,-1.078 -0.655,-1.535 -1.935,-1.535 -0.879,0 -0.911,0.117 -0.991,0.447 z" />
    <path
       id="incorporated-P-hole"
       fill="#ffffff"
       d="m 86.488,111.82 c 1.935,0.02 2.654,-0.289 2.654,-1.609 0,-1.215 -0.575,-1.621 -1.886,-1.621 -0.543,0 -0.751,0.139 -0.768,0.373 z" />
    <path
       id="incorportated-O-hole"
       fill="#ffffff"
       d="m 99.611,111.84 c 0,0.928 0.096,3.432 2.83,3.432 2.732,0 2.828,-2.504 2.828,-3.432 0,-1.555 -0.59,-3.43 -2.828,-3.43 -2.238,0 -2.83,1.875 -2.83,3.43 z" />
    <path
       id="incorporated-R2-hole"
       fill="#ffffff"
       d="m 117.227,111.744 c 2.094,-0.01 2.926,-0.244 2.926,-1.629 0,-1.078 -0.656,-1.535 -1.936,-1.535 -0.879,0 -0.91,0.117 -0.99,0.447 z" />
    <path
       id="incorporated-A-hole"
       d="m 134.652,112.906 -1.615,-2.59 -1.504,2.59 z"
       fill="#ffffff" />
    <path
       id="incorporated-D-hole"
       fill="#ffffff"
       d="m 177.361,114.43 c 0,0.428 0.145,0.619 0.912,0.619 1.791,0 3.197,-0.682 3.197,-3.229 0,-0.971 -0.367,-3.24 -3.117,-3.24 -1.023,0 -1.008,0.266 -0.992,0.5 z" />
    <path
       id="random-A-hole"
       d="M 47.013,94.638 49.317,83.78 51.726,94.638 Z"
       fill="#ffffff" />
    <path
       id="random-R-hole"
       fill="#ffffff"
       d="m 21.738,91.64 h -4.353 v -5.529 h 4.353 c 2.853,-0.034 2.797,2.531 2.797,2.531 0.201,3.229 -2.797,2.998 -2.797,2.998 z" />
    <path
       id="random-D-hole"
       fill="#ffffff"
       d="m 112.135,95.104 c 0,0 -0.4,3.22 -3.799,3.154 h -3.02 v -11.17 h 2.887 c 0,0 3.598,-0.177 3.932,3.487 0,-0.001 0.199,2.997 0,4.529 z" />
  </g>
</svg>
